static1_forces_filt12Hz.mot
version=1
nRows=28
nColumns=19
inDegrees=yes
endheader
time	R_ground_force_vx	R_ground_force_vy	R_ground_force_vz	R_ground_force_px	R_ground_force_py	R_ground_force_pz	R_ground_torque_x	R_ground_torque_y	R_ground_torque_z	L_ground_force_vx	L_ground_force_vy	L_ground_force_vz	L_ground_force_px	L_ground_force_py	L_ground_force_pz	L_ground_torque_x	L_ground_torque_y	L_ground_torque_z	
3.404500	 -3.808414	 14.248018	387.075924	  0.782904	  0.278775	  0.011500	  0.000000	  0.000000	 -1.163844	 -0.753052	-12.068172	394.682862	  0.774971	  0.720129	  0.011500	  0.000000	  0.000000	 -1.715988
3.405000	 -3.808797	 14.246696	387.075537	  0.782906	  0.278777	  0.011500	  0.000000	  0.000000	 -1.163008	 -0.764392	-12.068491	394.708441	  0.774977	  0.720129	  0.011500	  0.000000	  0.000000	 -1.718083
3.405500	 -3.809143	 14.245370	387.074975	  0.782907	  0.278778	  0.011500	  0.000000	  0.000000	 -1.162200	 -0.775685	-12.068849	394.733877	  0.774981	  0.720129	  0.011500	  0.000000	  0.000000	 -1.720172
3.406000	 -3.809452	 14.244036	387.074239	  0.782908	  0.278780	  0.011500	  0.000000	  0.000000	 -1.161423	 -0.786924	-12.069244	394.759162	  0.774986	  0.720130	  0.011500	  0.000000	  0.000000	 -1.722251
3.406500	 -3.809724	 14.242690	387.073330	  0.782909	  0.278781	  0.011500	  0.000000	  0.000000	 -1.160674	 -0.798105	-12.069672	394.784290	  0.774991	  0.720130	  0.011500	  0.000000	  0.000000	 -1.724320
3.407000	 -3.809957	 14.241327	387.072251	  0.782910	  0.278783	  0.011500	  0.000000	  0.000000	 -1.159954	 -0.809224	-12.070130	394.809254	  0.774995	  0.720130	  0.011500	  0.000000	  0.000000	 -1.726377
3.407500	 -3.810153	 14.239942	387.071007	  0.782912	  0.278784	  0.011500	  0.000000	  0.000000	 -1.159263	 -0.820274	-12.070615	394.834050	  0.774999	  0.720130	  0.011500	  0.000000	  0.000000	 -1.728421
3.408000	 -3.810312	 14.238530	387.069603	  0.782913	  0.278786	  0.011500	  0.000000	  0.000000	 -1.158600	 -0.831253	-12.071123	394.858673	  0.775002	  0.720130	  0.011500	  0.000000	  0.000000	 -1.730451
3.408500	 -3.810433	 14.237087	387.068044	  0.782914	  0.278788	  0.011500	  0.000000	  0.000000	 -1.157965	 -0.842156	-12.071650	394.883119	  0.775006	  0.720130	  0.011500	  0.000000	  0.000000	 -1.732467
3.409000	 -3.810516	 14.235608	387.066333	  0.782915	  0.278789	  0.011500	  0.000000	  0.000000	 -1.157356	 -0.852979	-12.072194	394.907383	  0.775009	  0.720130	  0.011500	  0.000000	  0.000000	 -1.734468
3.409500	 -3.810562	 14.234088	387.064476	  0.782916	  0.278791	  0.011500	  0.000000	  0.000000	 -1.156775	 -0.863719	-12.072751	394.931465	  0.775012	  0.720130	  0.011500	  0.000000	  0.000000	 -1.736455
3.410000	 -3.810570	 14.232523	387.062478	  0.782918	  0.278793	  0.011500	  0.000000	  0.000000	 -1.156220	 -0.874372	-12.073316	394.955361	  0.775015	  0.720130	  0.011500	  0.000000	  0.000000	 -1.738427
3.410500	 -3.810539	 14.230909	387.060343	  0.782919	  0.278794	  0.011500	  0.000000	  0.000000	 -1.155690	 -0.884936	-12.073887	394.979072	  0.775017	  0.720130	  0.011500	  0.000000	  0.000000	 -1.740386
3.411000	 -3.810469	 14.229241	387.058078	  0.782920	  0.278796	  0.011500	  0.000000	  0.000000	 -1.155186	 -0.895408	-12.074461	395.002598	  0.775019	  0.720131	  0.011500	  0.000000	  0.000000	 -1.742333
3.411500	 -3.810358	 14.227516	387.055692	  0.782921	  0.278798	  0.011500	  0.000000	  0.000000	 -1.154706	 -0.905783	-12.075036	395.025941	  0.775022	  0.720131	  0.011500	  0.000000	  0.000000	 -1.744269
3.412000	 -3.810206	 14.225730	387.053193	  0.782922	  0.278800	  0.011500	  0.000000	  0.000000	 -1.154249	 -0.916058	-12.075609	395.049103	  0.775024	  0.720131	  0.011500	  0.000000	  0.000000	 -1.746197
3.412500	 -3.810011	 14.223881	387.050591	  0.782923	  0.278801	  0.011500	  0.000000	  0.000000	 -1.153813	 -0.926229	-12.076179	395.072086	  0.775025	  0.720131	  0.011500	  0.000000	  0.000000	 -1.748117
3.413000	 -3.809773	 14.221967	387.047897	  0.782925	  0.278803	  0.011500	  0.000000	  0.000000	 -1.153400	 -0.936292	-12.076745	395.094896	  0.775027	  0.720131	  0.011500	  0.000000	  0.000000	 -1.750030
3.413500	 -3.809490	 14.219985	387.045123	  0.782926	  0.278805	  0.011500	  0.000000	  0.000000	 -1.153008	 -0.946242	-12.077308	395.117537	  0.775028	  0.720131	  0.011500	  0.000000	  0.000000	 -1.751937
3.414000	 -3.809159	 14.217932	387.042278	  0.782927	  0.278807	  0.011500	  0.000000	  0.000000	 -1.152638	 -0.956076	-12.077868	395.140016	  0.775029	  0.720131	  0.011500	  0.000000	  0.000000	 -1.753838
3.414500	 -3.808781	 14.215807	387.039372	  0.782928	  0.278809	  0.011500	  0.000000	  0.000000	 -1.152289	 -0.965786	-12.078426	395.162340	  0.775030	  0.720132	  0.011500	  0.000000	  0.000000	 -1.755735
3.415000	 -3.808352	 14.213607	387.036414	  0.782929	  0.278811	  0.011500	  0.000000	  0.000000	 -1.151964	 -0.975370	-12.078982	395.184518	  0.775031	  0.720132	  0.011500	  0.000000	  0.000000	 -1.757626
3.415500	 -3.807871	 14.211328	387.033413	  0.782930	  0.278812	  0.011500	  0.000000	  0.000000	 -1.151661	 -0.984821	-12.079540	395.206557	  0.775031	  0.720132	  0.011500	  0.000000	  0.000000	 -1.759513
3.416000	 -3.807334	 14.208968	387.030378	  0.782931	  0.278814	  0.011500	  0.000000	  0.000000	 -1.151382	 -0.994132	-12.080101	395.228466	  0.775031	  0.720132	  0.011500	  0.000000	  0.000000	 -1.761393
3.416500	 -3.806740	 14.206524	387.027317	  0.782932	  0.278816	  0.011500	  0.000000	  0.000000	 -1.151126	 -1.003298	-12.080669	395.250256	  0.775032	  0.720133	  0.011500	  0.000000	  0.000000	 -1.763266
3.417000	 -3.806086	 14.203994	387.024238	  0.782933	  0.278818	  0.011500	  0.000000	  0.000000	 -1.150896	 -1.012312	-12.081247	395.271933	  0.775031	  0.720133	  0.011500	  0.000000	  0.000000	 -1.765130
3.417500	 -3.805370	 14.201377	387.021148	  0.782934	  0.278820	  0.011500	  0.000000	  0.000000	 -1.150690	 -1.021167	-12.081841	395.293506	  0.775031	  0.720133	  0.011500	  0.000000	  0.000000	 -1.766984
3.418000	 -3.804588	 14.198672	387.018054	  0.782935	  0.278822	  0.011500	  0.000000	  0.000000	 -1.150511	 -1.029858	-12.082456	395.314984	  0.775031	  0.720133	  0.011500	  0.000000	  0.000000	 -1.768827
